<svg xmlns="http://www.w3.org/2000/svg" width="16" height="16" viewBox="0 0 40 40" version="1.1">
    <!-- Generator: Sketch 53.2 (72643) - https://sketchapp.com -->
    <title>Fill 1</title>
    <desc>Created with Sketch.</desc>
    <g id="final" stroke="none" stroke-width="1" fill="none" fill-rule="evenodd">
        <g id="WEB首页" transform="translate(-138.000000, -23.000000)" fill="#FFFFFF">
            <g id="Group-4" transform="translate(135.000000, 23.000000)">
                <g id="分组" transform="translate(3.000000, 0.000000)">
                    <path d="M31.6956747,30.3836837 L32.7491542,31.1311049 C33.5054063,31.7344643 33.6664045,32.8307091 33.1142965,33.629523 C32.8362451,34.031358 32.4195674,34.2996527 31.9413668,34.3854422 C31.4627667,34.4712318 30.9805711,34.3627808 30.5842679,34.0815368 L28.9966579,32.954942 C29.9902125,32.2192562 30.8970758,31.3556954 31.6956747,30.3836837 L31.6956747,30.3836837 Z M8.93820086,14.2422999 L29.5907133,28.8912693 C25.3859838,33.8294288 18.0236124,34.7735185 12.7306471,31.0194166 C7.43648324,27.2645053 5.79534039,19.9343553 8.93820086,14.2422999 L8.93820086,14.2422999 Z M10.4055615,12.118604 C14.6106905,7.17680246 21.9738609,6.22988012 27.2700222,9.98600538 C32.5657841,13.7425353 34.2057284,21.0747087 31.0592725,26.7675734 L10.4055615,12.118604 Z M8.30060008,10.6261896 L7.33261344,9.93906394 C6.9355112,9.65741524 6.67064321,9.23534687 6.58594937,8.75095967 C6.50205453,8.26616781 6.60832133,7.77813861 6.8859733,7.37630362 C7.16442426,6.97406396 7.58070246,6.7057693 8.05930255,6.61997975 C8.16636834,6.60096037 8.27343414,6.59165301 8.37970093,6.59165301 C8.74923772,6.59165301 9.10838754,6.70536463 9.41600195,6.92388517 L11.0036119,8.05047995 C10.0080598,8.78778443 9.09999805,9.6529639 8.30060008,10.6261896 L8.30060008,10.6261896 Z M34.4749909,29.2162175 L34.4865764,29.1992214 L34.1929445,28.9871756 C34.1745675,28.9726075 34.15659,28.9580395 34.1362156,28.9430668 C34.1158411,28.9284988 34.0950671,28.9155494 34.0443307,28.8847947 L33.1642339,28.2603924 C37.1252688,21.3737581 35.20168,12.4475988 28.7381819,7.86271415 C24.241019,4.67271895 18.3799658,4.19075976 13.4137908,6.59448569 L10.8845611,4.80059393 C8.90823842,3.39801581 6.17366616,3.88644968 4.78980081,5.88914995 C3.40593547,7.89144555 3.88813104,10.660991 5.86445375,12.0623552 L6.8336389,12.7498855 C2.87579998,19.6353058 4.80058729,28.5598465 11.2624874,33.1427078 C15.7588513,36.3322984 21.6195051,36.8142575 26.586479,34.4109363 L29.1157087,36.2044234 L29.3106643,36.3407964 L29.3150588,36.3355357 C30.0261674,36.7839075 30.8247664,37 31.6169734,37 C33.0004392,37 34.3639301,36.3416057 35.210469,35.116272 C36.5040475,33.2454934 36.1728627,30.6916358 34.4749909,29.2162175 L34.4749909,29.2162175 Z"
                          id="Fill-1"/>
                </g>
            </g>
        </g>
    </g>
</svg>