<svg xmlns="http://www.w3.org/2000/svg" viewBox="0 0 11.48 11.47">
    <defs>
        <style>.cls-1{fill:#645cb2;}.cls-2{fill:#f8f8fb;}</style>
    </defs>
    <title>pluginIcon</title>
    <path class="cls-1"
          d="M-30.24,389.6a5.68,5.68,0,0,1-5.71,5.62,5.72,5.72,0,0,1-5.76-5.76,5.77,5.77,0,0,1,5.81-5.72A5.74,5.74,0,0,1-30.24,389.6Zm-1.67-1.76a8.38,8.38,0,0,0-2.17-1.53,1.73,1.73,0,0,0-2.27,1.43c-.19.92,0,1.91-.19,2.84a1.76,1.76,0,0,1-.83,1.11,1.13,1.13,0,0,1-1-.41c-.09-.34.22-.79.37-1.19s.24-.57.35-.86c-.34,0-.86,0-1,.16-.37.52-.86,1.19-.79,1.74a2.28,2.28,0,0,0,1.2,1.46,2,2,0,0,0,2.84-1.84c.07-.84-.07-1.71.06-2.54a1.4,1.4,0,0,1,.84-.92,1.15,1.15,0,0,1,1,.44c.09.31-.23.76-.39,1.15s-.26.57-.4.86c.35,0,.81.07,1-.12A14.2,14.2,0,0,0-31.91,387.84Z"
          transform="translate(41.71 -383.74)"/>
    <path class="cls-2"
          d="M-31.91,387.84a14.2,14.2,0,0,1-1.35,1.78c-.21.19-.67.09-1,.12.14-.29.28-.57.4-.86s.48-.84.39-1.15a1.15,1.15,0,0,0-1-.44,1.4,1.4,0,0,0-.84.92c-.13.83,0,1.7-.06,2.54a2,2,0,0,1-2.84,1.84,2.28,2.28,0,0,1-1.2-1.46c-.07-.55.42-1.22.79-1.74.14-.19.66-.11,1-.16-.11.29-.24.57-.35.86s-.46.85-.37,1.19a1.13,1.13,0,0,0,1,.41,1.76,1.76,0,0,0,.83-1.11c.15-.93,0-1.92.19-2.84a1.73,1.73,0,0,1,2.27-1.43A8.38,8.38,0,0,1-31.91,387.84Z"
          transform="translate(41.71 -383.74)"/>
</svg>